solid CATIA STL
  facet normal  0.000000e+000  0.000000e+000 -9.999999e-001
    outer loop
      vertex -5.278775e+000  4.478834e-001  0.000000e+000
      vertex  1.350137e+001 -6.837073e+000  0.000000e+000
      vertex -5.678461e+000 -1.677989e+000  0.000000e+000
    endloop
  endfacet
  facet normal  0.000000e+000  0.000000e+000 -1.000000e+000
    outer loop
      vertex  1.350137e+001 -6.837073e+000  0.000000e+000
      vertex -7.251370e+000 -3.162927e+000  0.000000e+000
      vertex -5.678461e+000 -1.677989e+000  0.000000e+000
    endloop
  endfacet
  facet normal  -0.000000e+000  0.000000e+000 -1.000000e+000
    outer loop
      vertex -7.251370e+000 -3.162927e+000  0.000000e+000
      vertex  1.350137e+001 -6.837073e+000  0.000000e+000
      vertex  1.192846e+001 -8.322011e+000  0.000000e+000
    endloop
  endfacet
  facet normal  0.000000e+000  0.000000e+000 -1.000000e+000
    outer loop
      vertex  1.350137e+001 -6.837073e+000  0.000000e+000
      vertex -5.278775e+000  4.478834e-001  0.000000e+000
      vertex -6.204979e+000  2.402680e+000  0.000000e+000
    endloop
  endfacet
  facet normal  0.000000e+000  0.000000e+000 -9.999999e-001
    outer loop
      vertex  3.500000e+001  1.292893e+001  0.000000e+000
      vertex  3.500000e+001 -1.292893e+001  0.000000e+000
      vertex  1.754502e+001  1.240268e+001  0.000000e+000
    endloop
  endfacet
  facet normal  0.000000e+000  0.000000e+000 -1.000000e+000
    outer loop
      vertex  3.500000e+001  1.292893e+001  0.000000e+000
      vertex  1.754502e+001  1.240268e+001  0.000000e+000
      vertex  1.564670e+001  1.343973e+001  0.000000e+000
    endloop
  endfacet
  facet normal  0.000000e+000  0.000000e+000 -1.000000e+000
    outer loop
      vertex  3.500000e+001  1.292893e+001  0.000000e+000
      vertex  1.564670e+001  1.343973e+001  0.000000e+000
      vertex  2.792893e+001  2.000000e+001  0.000000e+000
    endloop
  endfacet
  facet normal  0.000000e+000  0.000000e+000 -1.000000e+000
    outer loop
      vertex  3.500000e+001 -1.292893e+001  0.000000e+000
      vertex  2.792893e+001 -2.000000e+001  0.000000e+000
      vertex  1.649863e+001 -1.316293e+001  0.000000e+000
    endloop
  endfacet
  facet normal  0.000000e+000  0.000000e+000 -1.000000e+000
    outer loop
      vertex  3.500000e+001 -1.292893e+001  0.000000e+000
      vertex  1.649863e+001 -1.316293e+001  0.000000e+000
      vertex  1.807154e+001 -1.167799e+001  0.000000e+000
    endloop
  endfacet
  facet normal  0.000000e+000  0.000000e+000 -1.000000e+000
    outer loop
      vertex  3.500000e+001 -1.292893e+001  0.000000e+000
      vertex  1.807154e+001 -1.167799e+001  0.000000e+000
      vertex  1.847122e+001 -9.552116e+000  0.000000e+000
    endloop
  endfacet
  facet normal  0.000000e+000  0.000000e+000 -1.000000e+000
    outer loop
      vertex  3.500000e+001 -1.292893e+001  0.000000e+000
      vertex  1.847122e+001 -9.552116e+000  0.000000e+000
      vertex  1.754502e+001 -7.597320e+000  0.000000e+000
    endloop
  endfacet
  facet normal  0.000000e+000  0.000000e+000 -1.000000e+000
    outer loop
      vertex  3.500000e+001 -1.292893e+001  0.000000e+000
      vertex  1.754502e+001 -7.597320e+000  0.000000e+000
      vertex  1.564670e+001 -6.560266e+000  0.000000e+000
    endloop
  endfacet
  facet normal  0.000000e+000  0.000000e+000 -1.000000e+000
    outer loop
      vertex  3.500000e+001 -1.292893e+001  0.000000e+000
      vertex  1.564670e+001 -6.560266e+000  0.000000e+000
      vertex  1.435330e+001  6.560266e+000  0.000000e+000
    endloop
  endfacet
  facet normal  0.000000e+000  0.000000e+000 -9.999999e-001
    outer loop
      vertex  3.500000e+001 -1.292893e+001  0.000000e+000
      vertex  1.435330e+001  6.560266e+000  0.000000e+000
      vertex  1.649863e+001  6.837073e+000  0.000000e+000
    endloop
  endfacet
  facet normal  0.000000e+000  0.000000e+000 -1.000000e+000
    outer loop
      vertex  3.500000e+001 -1.292893e+001  0.000000e+000
      vertex  1.649863e+001  6.837073e+000  0.000000e+000
      vertex  1.807154e+001  8.322011e+000  0.000000e+000
    endloop
  endfacet
  facet normal  0.000000e+000  0.000000e+000 -9.999999e-001
    outer loop
      vertex  3.500000e+001 -1.292893e+001  0.000000e+000
      vertex  1.807154e+001  8.322011e+000  0.000000e+000
      vertex  1.847122e+001  1.044788e+001  0.000000e+000
    endloop
  endfacet
  facet normal  0.000000e+000  0.000000e+000 -9.999999e-001
    outer loop
      vertex  3.500000e+001 -1.292893e+001  0.000000e+000
      vertex  1.847122e+001  1.044788e+001  0.000000e+000
      vertex  1.754502e+001  1.240268e+001  0.000000e+000
    endloop
  endfacet
  facet normal  0.000000e+000  -0.000000e+000 -1.000000e+000
    outer loop
      vertex -3.500000e+001  1.292893e+001  0.000000e+000
      vertex -2.792893e+001  2.000000e+001  0.000000e+000
      vertex -2.610329e+001  3.439734e+000  0.000000e+000
    endloop
  endfacet
  facet normal  -0.000000e+000  0.000000e+000 -1.000000e+000
    outer loop
      vertex -3.500000e+001  1.292893e+001  0.000000e+000
      vertex -2.610329e+001  3.439734e+000  0.000000e+000
      vertex -2.824863e+001  3.162927e+000  0.000000e+000
    endloop
  endfacet
  facet normal  -0.000000e+000  0.000000e+000 -1.000000e+000
    outer loop
      vertex -3.500000e+001  1.292893e+001  0.000000e+000
      vertex -2.824863e+001  3.162927e+000  0.000000e+000
      vertex -2.982154e+001  1.677989e+000  0.000000e+000
    endloop
  endfacet
  facet normal  -0.000000e+000  0.000000e+000 -1.000000e+000
    outer loop
      vertex -3.500000e+001  1.292893e+001  0.000000e+000
      vertex -2.982154e+001  1.677989e+000  0.000000e+000
      vertex -3.500000e+001 -1.292893e+001  0.000000e+000
    endloop
  endfacet
  facet normal  0.000000e+000  0.000000e+000 -9.999999e-001
    outer loop
      vertex -2.792893e+001 -2.000000e+001  0.000000e+000
      vertex -3.500000e+001 -1.292893e+001  0.000000e+000
      vertex -2.739671e+001 -3.439734e+000  0.000000e+000
    endloop
  endfacet
  facet normal  0.000000e+000  -0.000000e+000 -1.000000e+000
    outer loop
      vertex -2.792893e+001 -2.000000e+001  0.000000e+000
      vertex -2.739671e+001 -3.439734e+000  0.000000e+000
      vertex -2.525137e+001 -3.162927e+000  0.000000e+000
    endloop
  endfacet
  facet normal  0.000000e+000  -0.000000e+000 -1.000000e+000
    outer loop
      vertex -2.792893e+001 -2.000000e+001  0.000000e+000
      vertex -2.525137e+001 -3.162927e+000  0.000000e+000
      vertex -9.396705e+000 -3.439734e+000  0.000000e+000
    endloop
  endfacet
  facet normal  0.000000e+000  -0.000000e+000 -1.000000e+000
    outer loop
      vertex -2.792893e+001 -2.000000e+001  0.000000e+000
      vertex -9.396705e+000 -3.439734e+000  0.000000e+000
      vertex -7.251370e+000 -3.162927e+000  0.000000e+000
    endloop
  endfacet
  facet normal  0.000000e+000  -0.000000e+000 -1.000000e+000
    outer loop
      vertex -2.792893e+001 -2.000000e+001  0.000000e+000
      vertex -7.251370e+000 -3.162927e+000  0.000000e+000
      vertex  1.192846e+001 -8.322011e+000  0.000000e+000
    endloop
  endfacet
  facet normal  0.000000e+000  0.000000e+000 -1.000000e+000
    outer loop
      vertex -2.792893e+001 -2.000000e+001  0.000000e+000
      vertex  1.192846e+001 -8.322011e+000  0.000000e+000
      vertex  1.152878e+001 -1.044788e+001  0.000000e+000
    endloop
  endfacet
  facet normal  0.000000e+000  -0.000000e+000 -9.999999e-001
    outer loop
      vertex -2.792893e+001 -2.000000e+001  0.000000e+000
      vertex  1.152878e+001 -1.044788e+001  0.000000e+000
      vertex  1.245498e+001 -1.240268e+001  0.000000e+000
    endloop
  endfacet
  facet normal  0.000000e+000  -0.000000e+000 -1.000000e+000
    outer loop
      vertex -2.792893e+001 -2.000000e+001  0.000000e+000
      vertex  1.245498e+001 -1.240268e+001  0.000000e+000
      vertex  1.435330e+001 -1.343973e+001  0.000000e+000
    endloop
  endfacet
  facet normal  0.000000e+000  -0.000000e+000 -1.000000e+000
    outer loop
      vertex -2.792893e+001 -2.000000e+001  0.000000e+000
      vertex  1.435330e+001 -1.343973e+001  0.000000e+000
      vertex  1.649863e+001 -1.316293e+001  0.000000e+000
    endloop
  endfacet
  facet normal  0.000000e+000  -0.000000e+000 -1.000000e+000
    outer loop
      vertex -2.792893e+001 -2.000000e+001  0.000000e+000
      vertex  1.649863e+001 -1.316293e+001  0.000000e+000
      vertex  2.792893e+001 -2.000000e+001  0.000000e+000
    endloop
  endfacet
  facet normal  -0.000000e+000  0.000000e+000 -1.000000e+000
    outer loop
      vertex -2.792893e+001  2.000000e+001  0.000000e+000
      vertex  2.792893e+001  2.000000e+001  0.000000e+000
      vertex  1.564670e+001  1.343973e+001  0.000000e+000
    endloop
  endfacet
  facet normal  -0.000000e+000  0.000000e+000 -9.999999e-001
    outer loop
      vertex -2.792893e+001  2.000000e+001  0.000000e+000
      vertex  1.564670e+001  1.343973e+001  0.000000e+000
      vertex  1.350137e+001  1.316293e+001  0.000000e+000
    endloop
  endfacet
  facet normal  -0.000000e+000  0.000000e+000 -1.000000e+000
    outer loop
      vertex -2.792893e+001  2.000000e+001  0.000000e+000
      vertex  1.350137e+001  1.316293e+001  0.000000e+000
      vertex -8.103295e+000  3.439734e+000  0.000000e+000
    endloop
  endfacet
  facet normal  -0.000000e+000  0.000000e+000 -1.000000e+000
    outer loop
      vertex -2.792893e+001  2.000000e+001  0.000000e+000
      vertex -8.103295e+000  3.439734e+000  0.000000e+000
      vertex -1.024863e+001  3.162927e+000  0.000000e+000
    endloop
  endfacet
  facet normal  -0.000000e+000  0.000000e+000 -1.000000e+000
    outer loop
      vertex -2.792893e+001  2.000000e+001  0.000000e+000
      vertex -1.024863e+001  3.162927e+000  0.000000e+000
      vertex -2.420498e+001  2.402680e+000  0.000000e+000
    endloop
  endfacet
  facet normal  0.000000e+000  0.000000e+000 -1.000000e+000
    outer loop
      vertex -2.792893e+001  2.000000e+001  0.000000e+000
      vertex -2.420498e+001  2.402680e+000  0.000000e+000
      vertex -2.610329e+001  3.439734e+000  0.000000e+000
    endloop
  endfacet
  facet normal  0.000000e+000  0.000000e+000 -1.000000e+000
    outer loop
      vertex -3.500000e+001 -1.292893e+001  0.000000e+000
      vertex -2.982154e+001  1.677989e+000  0.000000e+000
      vertex -3.022122e+001 -4.478834e-001  0.000000e+000
    endloop
  endfacet
  facet normal  0.000000e+000  -0.000000e+000 -1.000000e+000
    outer loop
      vertex -3.500000e+001 -1.292893e+001  0.000000e+000
      vertex -3.022122e+001 -4.478834e-001  0.000000e+000
      vertex -2.929502e+001 -2.402680e+000  0.000000e+000
    endloop
  endfacet
  facet normal  0.000000e+000  -0.000000e+000 -1.000000e+000
    outer loop
      vertex -3.500000e+001 -1.292893e+001  0.000000e+000
      vertex -2.929502e+001 -2.402680e+000  0.000000e+000
      vertex -2.739671e+001 -3.439734e+000  0.000000e+000
    endloop
  endfacet
  facet normal  0.000000e+000  0.000000e+000 -1.000000e+000
    outer loop
      vertex -8.103295e+000  3.439734e+000  0.000000e+000
      vertex  1.350137e+001  1.316293e+001  0.000000e+000
      vertex  1.192846e+001  1.167799e+001  0.000000e+000
    endloop
  endfacet
  facet normal  0.000000e+000  0.000000e+000 -1.000000e+000
    outer loop
      vertex -8.103295e+000  3.439734e+000  0.000000e+000
      vertex  1.192846e+001  1.167799e+001  0.000000e+000
      vertex  1.152878e+001  9.552116e+000  0.000000e+000
    endloop
  endfacet
  facet normal  0.000000e+000  -0.000000e+000 -1.000000e+000
    outer loop
      vertex -8.103295e+000  3.439734e+000  0.000000e+000
      vertex  1.152878e+001  9.552116e+000  0.000000e+000
      vertex  1.245498e+001  7.597320e+000  0.000000e+000
    endloop
  endfacet
  facet normal  0.000000e+000  -0.000000e+000 -1.000000e+000
    outer loop
      vertex -8.103295e+000  3.439734e+000  0.000000e+000
      vertex  1.245498e+001  7.597320e+000  0.000000e+000
      vertex  1.435330e+001  6.560266e+000  0.000000e+000
    endloop
  endfacet
  facet normal  0.000000e+000  -0.000000e+000 -1.000000e+000
    outer loop
      vertex -8.103295e+000  3.439734e+000  0.000000e+000
      vertex  1.435330e+001  6.560266e+000  0.000000e+000
      vertex  1.564670e+001 -6.560266e+000  0.000000e+000
    endloop
  endfacet
  facet normal  -0.000000e+000  0.000000e+000 -1.000000e+000
    outer loop
      vertex -8.103295e+000  3.439734e+000  0.000000e+000
      vertex  1.564670e+001 -6.560266e+000  0.000000e+000
      vertex  1.350137e+001 -6.837073e+000  0.000000e+000
    endloop
  endfacet
  facet normal  0.000000e+000  0.000000e+000 -1.000000e+000
    outer loop
      vertex -8.103295e+000  3.439734e+000  0.000000e+000
      vertex  1.350137e+001 -6.837073e+000  0.000000e+000
      vertex -6.204979e+000  2.402680e+000  0.000000e+000
    endloop
  endfacet
  facet normal  0.000000e+000  0.000000e+000 -1.000000e+000
    outer loop
      vertex -1.024863e+001  3.162927e+000  0.000000e+000
      vertex -1.182154e+001  1.677989e+000  0.000000e+000
      vertex -2.420498e+001  2.402680e+000  0.000000e+000
    endloop
  endfacet
  facet normal  0.000000e+000  0.000000e+000 -1.000000e+000
    outer loop
      vertex -2.420498e+001  2.402680e+000  0.000000e+000
      vertex -1.182154e+001  1.677989e+000  0.000000e+000
      vertex -1.222122e+001 -4.478834e-001  0.000000e+000
    endloop
  endfacet
  facet normal  0.000000e+000  0.000000e+000 -1.000000e+000
    outer loop
      vertex -2.420498e+001  2.402680e+000  0.000000e+000
      vertex -1.222122e+001 -4.478834e-001  0.000000e+000
      vertex -2.327878e+001  4.478834e-001  0.000000e+000
    endloop
  endfacet
  facet normal  0.000000e+000  0.000000e+000 -1.000000e+000
    outer loop
      vertex -2.327878e+001  4.478834e-001  0.000000e+000
      vertex -1.222122e+001 -4.478834e-001  0.000000e+000
      vertex -1.129502e+001 -2.402680e+000  0.000000e+000
    endloop
  endfacet
  facet normal  0.000000e+000  0.000000e+000 -1.000000e+000
    outer loop
      vertex -2.327878e+001  4.478834e-001  0.000000e+000
      vertex -1.129502e+001 -2.402680e+000  0.000000e+000
      vertex -2.367846e+001 -1.677989e+000  0.000000e+000
    endloop
  endfacet
  facet normal  0.000000e+000  0.000000e+000 -9.999999e-001
    outer loop
      vertex -2.367846e+001 -1.677989e+000  0.000000e+000
      vertex -1.129502e+001 -2.402680e+000  0.000000e+000
      vertex -9.396705e+000 -3.439734e+000  0.000000e+000
    endloop
  endfacet
  facet normal  0.000000e+000  0.000000e+000 -1.000000e+000
    outer loop
      vertex -2.367846e+001 -1.677989e+000  0.000000e+000
      vertex -9.396705e+000 -3.439734e+000  0.000000e+000
      vertex -2.525137e+001 -3.162927e+000  0.000000e+000
    endloop
  endfacet
  facet normal  0.000000e+000  0.000000e+000  9.999999e-001
    outer loop
      vertex -5.678461e+000 -1.677989e+000  1.000000e+001
      vertex  1.350137e+001 -6.837073e+000  1.000000e+001
      vertex -5.278775e+000  4.478834e-001  1.000000e+001
    endloop
  endfacet
  facet normal  -0.000000e+000  0.000000e+000  1.000000e+000
    outer loop
      vertex -5.678461e+000 -1.677989e+000  1.000000e+001
      vertex -7.251370e+000 -3.162927e+000  1.000000e+001
      vertex  1.350137e+001 -6.837073e+000  1.000000e+001
    endloop
  endfacet
  facet normal  0.000000e+000  0.000000e+000  1.000000e+000
    outer loop
      vertex  1.192846e+001 -8.322011e+000  1.000000e+001
      vertex  1.350137e+001 -6.837073e+000  1.000000e+001
      vertex -7.251370e+000 -3.162927e+000  1.000000e+001
    endloop
  endfacet
  facet normal  -0.000000e+000  -0.000000e+000  1.000000e+000
    outer loop
      vertex -6.204979e+000  2.402680e+000  1.000000e+001
      vertex -5.278775e+000  4.478834e-001  1.000000e+001
      vertex  1.350137e+001 -6.837073e+000  1.000000e+001
    endloop
  endfacet
  facet normal  0.000000e+000  0.000000e+000  1.000000e+000
    outer loop
      vertex  3.500000e+001  1.292893e+001  1.000000e+001
      vertex  2.792893e+001  2.000000e+001  1.000000e+001
      vertex  1.564670e+001  1.343973e+001  1.000000e+001
    endloop
  endfacet
  facet normal  0.000000e+000  0.000000e+000  1.000000e+000
    outer loop
      vertex  3.500000e+001  1.292893e+001  1.000000e+001
      vertex  1.564670e+001  1.343973e+001  1.000000e+001
      vertex  1.754502e+001  1.240268e+001  1.000000e+001
    endloop
  endfacet
  facet normal  -0.000000e+000  0.000000e+000  9.999999e-001
    outer loop
      vertex  3.500000e+001  1.292893e+001  1.000000e+001
      vertex  1.754502e+001  1.240268e+001  1.000000e+001
      vertex  3.500000e+001 -1.292893e+001  1.000000e+001
    endloop
  endfacet
  facet normal  0.000000e+000  0.000000e+000  9.999999e-001
    outer loop
      vertex  3.500000e+001 -1.292893e+001  1.000000e+001
      vertex  1.754502e+001  1.240268e+001  1.000000e+001
      vertex  1.847122e+001  1.044788e+001  1.000000e+001
    endloop
  endfacet
  facet normal  0.000000e+000  0.000000e+000  9.999999e-001
    outer loop
      vertex  3.500000e+001 -1.292893e+001  1.000000e+001
      vertex  1.847122e+001  1.044788e+001  1.000000e+001
      vertex  1.807154e+001  8.322011e+000  1.000000e+001
    endloop
  endfacet
  facet normal  0.000000e+000  0.000000e+000  1.000000e+000
    outer loop
      vertex  3.500000e+001 -1.292893e+001  1.000000e+001
      vertex  1.807154e+001  8.322011e+000  1.000000e+001
      vertex  1.649863e+001  6.837073e+000  1.000000e+001
    endloop
  endfacet
  facet normal  0.000000e+000  0.000000e+000  9.999999e-001
    outer loop
      vertex  3.500000e+001 -1.292893e+001  1.000000e+001
      vertex  1.649863e+001  6.837073e+000  1.000000e+001
      vertex  1.435330e+001  6.560266e+000  1.000000e+001
    endloop
  endfacet
  facet normal  0.000000e+000  0.000000e+000  1.000000e+000
    outer loop
      vertex  3.500000e+001 -1.292893e+001  1.000000e+001
      vertex  1.435330e+001  6.560266e+000  1.000000e+001
      vertex  1.564670e+001 -6.560266e+000  1.000000e+001
    endloop
  endfacet
  facet normal  0.000000e+000  0.000000e+000  1.000000e+000
    outer loop
      vertex  3.500000e+001 -1.292893e+001  1.000000e+001
      vertex  1.564670e+001 -6.560266e+000  1.000000e+001
      vertex  1.754502e+001 -7.597320e+000  1.000000e+001
    endloop
  endfacet
  facet normal  0.000000e+000  0.000000e+000  1.000000e+000
    outer loop
      vertex  3.500000e+001 -1.292893e+001  1.000000e+001
      vertex  1.754502e+001 -7.597320e+000  1.000000e+001
      vertex  1.847122e+001 -9.552116e+000  1.000000e+001
    endloop
  endfacet
  facet normal  0.000000e+000  0.000000e+000  1.000000e+000
    outer loop
      vertex  3.500000e+001 -1.292893e+001  1.000000e+001
      vertex  1.847122e+001 -9.552116e+000  1.000000e+001
      vertex  1.807154e+001 -1.167799e+001  1.000000e+001
    endloop
  endfacet
  facet normal  0.000000e+000  0.000000e+000  1.000000e+000
    outer loop
      vertex  3.500000e+001 -1.292893e+001  1.000000e+001
      vertex  1.807154e+001 -1.167799e+001  1.000000e+001
      vertex  1.649863e+001 -1.316293e+001  1.000000e+001
    endloop
  endfacet
  facet normal  -0.000000e+000  0.000000e+000  1.000000e+000
    outer loop
      vertex  3.500000e+001 -1.292893e+001  1.000000e+001
      vertex  1.649863e+001 -1.316293e+001  1.000000e+001
      vertex  2.792893e+001 -2.000000e+001  1.000000e+001
    endloop
  endfacet
  facet normal  0.000000e+000  0.000000e+000  1.000000e+000
    outer loop
      vertex -3.500000e+001  1.292893e+001  1.000000e+001
      vertex -3.500000e+001 -1.292893e+001  1.000000e+001
      vertex -2.982154e+001  1.677989e+000  1.000000e+001
    endloop
  endfacet
  facet normal  0.000000e+000  -0.000000e+000  1.000000e+000
    outer loop
      vertex -3.500000e+001  1.292893e+001  1.000000e+001
      vertex -2.982154e+001  1.677989e+000  1.000000e+001
      vertex -2.824863e+001  3.162927e+000  1.000000e+001
    endloop
  endfacet
  facet normal  0.000000e+000  -0.000000e+000  1.000000e+000
    outer loop
      vertex -3.500000e+001  1.292893e+001  1.000000e+001
      vertex -2.824863e+001  3.162927e+000  1.000000e+001
      vertex -2.610329e+001  3.439734e+000  1.000000e+001
    endloop
  endfacet
  facet normal  0.000000e+000  0.000000e+000  1.000000e+000
    outer loop
      vertex -3.500000e+001  1.292893e+001  1.000000e+001
      vertex -2.610329e+001  3.439734e+000  1.000000e+001
      vertex -2.792893e+001  2.000000e+001  1.000000e+001
    endloop
  endfacet
  facet normal  0.000000e+000  0.000000e+000  1.000000e+000
    outer loop
      vertex -2.792893e+001 -2.000000e+001  1.000000e+001
      vertex  2.792893e+001 -2.000000e+001  1.000000e+001
      vertex  1.649863e+001 -1.316293e+001  1.000000e+001
    endloop
  endfacet
  facet normal  0.000000e+000  0.000000e+000  9.999999e-001
    outer loop
      vertex -2.792893e+001 -2.000000e+001  1.000000e+001
      vertex  1.649863e+001 -1.316293e+001  1.000000e+001
      vertex  1.435330e+001 -1.343973e+001  1.000000e+001
    endloop
  endfacet
  facet normal  0.000000e+000  0.000000e+000  1.000000e+000
    outer loop
      vertex -2.792893e+001 -2.000000e+001  1.000000e+001
      vertex  1.435330e+001 -1.343973e+001  1.000000e+001
      vertex  1.245498e+001 -1.240268e+001  1.000000e+001
    endloop
  endfacet
  facet normal  0.000000e+000  0.000000e+000  9.999999e-001
    outer loop
      vertex -2.792893e+001 -2.000000e+001  1.000000e+001
      vertex  1.245498e+001 -1.240268e+001  1.000000e+001
      vertex  1.152878e+001 -1.044788e+001  1.000000e+001
    endloop
  endfacet
  facet normal  0.000000e+000  -0.000000e+000  1.000000e+000
    outer loop
      vertex -2.792893e+001 -2.000000e+001  1.000000e+001
      vertex  1.152878e+001 -1.044788e+001  1.000000e+001
      vertex  1.192846e+001 -8.322011e+000  1.000000e+001
    endloop
  endfacet
  facet normal  0.000000e+000  0.000000e+000  1.000000e+000
    outer loop
      vertex -2.792893e+001 -2.000000e+001  1.000000e+001
      vertex  1.192846e+001 -8.322011e+000  1.000000e+001
      vertex -7.251370e+000 -3.162927e+000  1.000000e+001
    endloop
  endfacet
  facet normal  0.000000e+000  0.000000e+000  1.000000e+000
    outer loop
      vertex -2.792893e+001 -2.000000e+001  1.000000e+001
      vertex -7.251370e+000 -3.162927e+000  1.000000e+001
      vertex -9.396705e+000 -3.439734e+000  1.000000e+001
    endloop
  endfacet
  facet normal  0.000000e+000  0.000000e+000  1.000000e+000
    outer loop
      vertex -2.792893e+001 -2.000000e+001  1.000000e+001
      vertex -9.396705e+000 -3.439734e+000  1.000000e+001
      vertex -2.525137e+001 -3.162927e+000  1.000000e+001
    endloop
  endfacet
  facet normal  0.000000e+000  0.000000e+000  1.000000e+000
    outer loop
      vertex -2.792893e+001 -2.000000e+001  1.000000e+001
      vertex -2.525137e+001 -3.162927e+000  1.000000e+001
      vertex -2.739671e+001 -3.439734e+000  1.000000e+001
    endloop
  endfacet
  facet normal  0.000000e+000  0.000000e+000  1.000000e+000
    outer loop
      vertex -2.792893e+001 -2.000000e+001  1.000000e+001
      vertex -2.739671e+001 -3.439734e+000  1.000000e+001
      vertex -3.500000e+001 -1.292893e+001  1.000000e+001
    endloop
  endfacet
  facet normal  -0.000000e+000  -0.000000e+000  9.999999e-001
    outer loop
      vertex -2.792893e+001  2.000000e+001  1.000000e+001
      vertex -2.610329e+001  3.439734e+000  1.000000e+001
      vertex -2.420498e+001  2.402680e+000  1.000000e+001
    endloop
  endfacet
  facet normal  0.000000e+000  -0.000000e+000  1.000000e+000
    outer loop
      vertex -2.792893e+001  2.000000e+001  1.000000e+001
      vertex -2.420498e+001  2.402680e+000  1.000000e+001
      vertex -1.024863e+001  3.162927e+000  1.000000e+001
    endloop
  endfacet
  facet normal  0.000000e+000  -0.000000e+000  1.000000e+000
    outer loop
      vertex -2.792893e+001  2.000000e+001  1.000000e+001
      vertex -1.024863e+001  3.162927e+000  1.000000e+001
      vertex -8.103295e+000  3.439734e+000  1.000000e+001
    endloop
  endfacet
  facet normal  0.000000e+000  -0.000000e+000  1.000000e+000
    outer loop
      vertex -2.792893e+001  2.000000e+001  1.000000e+001
      vertex -8.103295e+000  3.439734e+000  1.000000e+001
      vertex  1.350137e+001  1.316293e+001  1.000000e+001
    endloop
  endfacet
  facet normal  0.000000e+000  -0.000000e+000  9.999999e-001
    outer loop
      vertex -2.792893e+001  2.000000e+001  1.000000e+001
      vertex  1.350137e+001  1.316293e+001  1.000000e+001
      vertex  1.564670e+001  1.343973e+001  1.000000e+001
    endloop
  endfacet
  facet normal  0.000000e+000  -0.000000e+000  1.000000e+000
    outer loop
      vertex -2.792893e+001  2.000000e+001  1.000000e+001
      vertex  1.564670e+001  1.343973e+001  1.000000e+001
      vertex  2.792893e+001  2.000000e+001  1.000000e+001
    endloop
  endfacet
  facet normal  0.000000e+000  0.000000e+000  1.000000e+000
    outer loop
      vertex -3.500000e+001 -1.292893e+001  1.000000e+001
      vertex -2.739671e+001 -3.439734e+000  1.000000e+001
      vertex -2.929502e+001 -2.402680e+000  1.000000e+001
    endloop
  endfacet
  facet normal  0.000000e+000  0.000000e+000  1.000000e+000
    outer loop
      vertex -3.500000e+001 -1.292893e+001  1.000000e+001
      vertex -2.929502e+001 -2.402680e+000  1.000000e+001
      vertex -3.022122e+001 -4.478834e-001  1.000000e+001
    endloop
  endfacet
  facet normal  0.000000e+000  -0.000000e+000  1.000000e+000
    outer loop
      vertex -3.500000e+001 -1.292893e+001  1.000000e+001
      vertex -3.022122e+001 -4.478834e-001  1.000000e+001
      vertex -2.982154e+001  1.677989e+000  1.000000e+001
    endloop
  endfacet
  facet normal  -0.000000e+000  -0.000000e+000  1.000000e+000
    outer loop
      vertex -8.103295e+000  3.439734e+000  1.000000e+001
      vertex -6.204979e+000  2.402680e+000  1.000000e+001
      vertex  1.350137e+001 -6.837073e+000  1.000000e+001
    endloop
  endfacet
  facet normal  0.000000e+000  -0.000000e+000  1.000000e+000
    outer loop
      vertex -8.103295e+000  3.439734e+000  1.000000e+001
      vertex  1.350137e+001 -6.837073e+000  1.000000e+001
      vertex  1.564670e+001 -6.560266e+000  1.000000e+001
    endloop
  endfacet
  facet normal  0.000000e+000  0.000000e+000  1.000000e+000
    outer loop
      vertex -8.103295e+000  3.439734e+000  1.000000e+001
      vertex  1.564670e+001 -6.560266e+000  1.000000e+001
      vertex  1.435330e+001  6.560266e+000  1.000000e+001
    endloop
  endfacet
  facet normal  0.000000e+000  0.000000e+000  1.000000e+000
    outer loop
      vertex -8.103295e+000  3.439734e+000  1.000000e+001
      vertex  1.435330e+001  6.560266e+000  1.000000e+001
      vertex  1.245498e+001  7.597320e+000  1.000000e+001
    endloop
  endfacet
  facet normal  0.000000e+000  0.000000e+000  1.000000e+000
    outer loop
      vertex -8.103295e+000  3.439734e+000  1.000000e+001
      vertex  1.245498e+001  7.597320e+000  1.000000e+001
      vertex  1.152878e+001  9.552116e+000  1.000000e+001
    endloop
  endfacet
  facet normal  0.000000e+000  -0.000000e+000  1.000000e+000
    outer loop
      vertex -8.103295e+000  3.439734e+000  1.000000e+001
      vertex  1.152878e+001  9.552116e+000  1.000000e+001
      vertex  1.192846e+001  1.167799e+001  1.000000e+001
    endloop
  endfacet
  facet normal  0.000000e+000  -0.000000e+000  1.000000e+000
    outer loop
      vertex -8.103295e+000  3.439734e+000  1.000000e+001
      vertex  1.192846e+001  1.167799e+001  1.000000e+001
      vertex  1.350137e+001  1.316293e+001  1.000000e+001
    endloop
  endfacet
  facet normal  0.000000e+000  0.000000e+000  1.000000e+000
    outer loop
      vertex -2.525137e+001 -3.162927e+000  1.000000e+001
      vertex -9.396705e+000 -3.439734e+000  1.000000e+001
      vertex -2.367846e+001 -1.677989e+000  1.000000e+001
    endloop
  endfacet
  facet normal  0.000000e+000  0.000000e+000  9.999999e-001
    outer loop
      vertex -2.367846e+001 -1.677989e+000  1.000000e+001
      vertex -9.396705e+000 -3.439734e+000  1.000000e+001
      vertex -1.129502e+001 -2.402680e+000  1.000000e+001
    endloop
  endfacet
  facet normal  0.000000e+000  0.000000e+000  1.000000e+000
    outer loop
      vertex -2.367846e+001 -1.677989e+000  1.000000e+001
      vertex -1.129502e+001 -2.402680e+000  1.000000e+001
      vertex -2.327878e+001  4.478834e-001  1.000000e+001
    endloop
  endfacet
  facet normal  0.000000e+000  0.000000e+000  1.000000e+000
    outer loop
      vertex -2.327878e+001  4.478834e-001  1.000000e+001
      vertex -1.129502e+001 -2.402680e+000  1.000000e+001
      vertex -1.222122e+001 -4.478834e-001  1.000000e+001
    endloop
  endfacet
  facet normal  0.000000e+000  0.000000e+000  1.000000e+000
    outer loop
      vertex -2.327878e+001  4.478834e-001  1.000000e+001
      vertex -1.222122e+001 -4.478834e-001  1.000000e+001
      vertex -2.420498e+001  2.402680e+000  1.000000e+001
    endloop
  endfacet
  facet normal  0.000000e+000  0.000000e+000  1.000000e+000
    outer loop
      vertex -2.420498e+001  2.402680e+000  1.000000e+001
      vertex -1.222122e+001 -4.478834e-001  1.000000e+001
      vertex -1.182154e+001  1.677989e+000  1.000000e+001
    endloop
  endfacet
  facet normal  0.000000e+000  -0.000000e+000  1.000000e+000
    outer loop
      vertex -2.420498e+001  2.402680e+000  1.000000e+001
      vertex -1.182154e+001  1.677989e+000  1.000000e+001
      vertex -1.024863e+001  3.162927e+000  1.000000e+001
    endloop
  endfacet
  facet normal  9.036933e-001  4.281802e-001  -0.000000e+000
    outer loop
      vertex  1.245498e+001  7.597320e+000  1.000000e+001
      vertex  1.152878e+001  9.552116e+000  0.000000e+000
      vertex  1.152878e+001  9.552116e+000  1.000000e+001
    endloop
  endfacet
  facet normal  9.827812e-001 -1.847729e-001  0.000000e+000
    outer loop
      vertex  1.152878e+001  9.552116e+000  1.000000e+001
      vertex  1.152878e+001  9.552116e+000  0.000000e+000
      vertex  1.192846e+001  1.167799e+001  0.000000e+000
    endloop
  endfacet
  facet normal  9.827812e-001 -1.847729e-001  0.000000e+000
    outer loop
      vertex  1.152878e+001  9.552116e+000  1.000000e+001
      vertex  1.192846e+001  1.167799e+001  0.000000e+000
      vertex  1.192846e+001  1.167799e+001  1.000000e+001
    endloop
  endfacet
  facet normal  9.036933e-001  4.281802e-001  0.000000e+000
    outer loop
      vertex  1.152878e+001  9.552116e+000  0.000000e+000
      vertex  1.245498e+001  7.597320e+000  1.000000e+001
      vertex  1.245498e+001  7.597320e+000  0.000000e+000
    endloop
  endfacet
  facet normal  4.794255e-001  8.775825e-001  -0.000000e+000
    outer loop
      vertex  1.245498e+001  7.597320e+000  0.000000e+000
      vertex  1.245498e+001  7.597320e+000  1.000000e+001
      vertex  1.435330e+001  6.560266e+000  1.000000e+001
    endloop
  endfacet
  facet normal  4.794255e-001  8.775825e-001  0.000000e+000
    outer loop
      vertex  1.245498e+001  7.597320e+000  0.000000e+000
      vertex  1.435330e+001  6.560266e+000  1.000000e+001
      vertex  1.435330e+001  6.560266e+000  0.000000e+000
    endloop
  endfacet
  facet normal -1.279667e-001  9.917784e-001  0.000000e+000
    outer loop
      vertex  1.435330e+001  6.560266e+000  0.000000e+000
      vertex  1.435330e+001  6.560266e+000  1.000000e+001
      vertex  1.649863e+001  6.837073e+000  1.000000e+001
    endloop
  endfacet
  facet normal -1.279667e-001  9.917784e-001  0.000000e+000
    outer loop
      vertex  1.435330e+001  6.560266e+000  0.000000e+000
      vertex  1.649863e+001  6.837073e+000  1.000000e+001
      vertex  1.649863e+001  6.837073e+000  0.000000e+000
    endloop
  endfacet
  facet normal -6.864803e-001  7.271485e-001  0.000000e+000
    outer loop
      vertex  1.649863e+001  6.837073e+000  0.000000e+000
      vertex  1.649863e+001  6.837073e+000  1.000000e+001
      vertex  1.807154e+001  8.322011e+000  1.000000e+001
    endloop
  endfacet
  facet normal -6.864803e-001  7.271485e-001  0.000000e+000
    outer loop
      vertex  1.649863e+001  6.837073e+000  0.000000e+000
      vertex  1.807154e+001  8.322011e+000  1.000000e+001
      vertex  1.807154e+001  8.322011e+000  0.000000e+000
    endloop
  endfacet
  facet normal -9.036937e-001 -4.281795e-001  0.000000e+000
    outer loop
      vertex  1.754502e+001  1.240268e+001  1.000000e+001
      vertex  1.847122e+001  1.044788e+001  0.000000e+000
      vertex  1.847122e+001  1.044788e+001  1.000000e+001
    endloop
  endfacet
  facet normal -9.827813e-001  1.847725e-001  0.000000e+000
    outer loop
      vertex  1.847122e+001  1.044788e+001  1.000000e+001
      vertex  1.847122e+001  1.044788e+001  0.000000e+000
      vertex  1.807154e+001  8.322011e+000  0.000000e+000
    endloop
  endfacet
  facet normal -9.827813e-001  1.847725e-001  0.000000e+000
    outer loop
      vertex  1.847122e+001  1.044788e+001  1.000000e+001
      vertex  1.807154e+001  8.322011e+000  0.000000e+000
      vertex  1.807154e+001  8.322011e+000  1.000000e+001
    endloop
  endfacet
  facet normal -9.036937e-001 -4.281795e-001  -0.000000e+000
    outer loop
      vertex  1.847122e+001  1.044788e+001  0.000000e+000
      vertex  1.754502e+001  1.240268e+001  1.000000e+001
      vertex  1.754502e+001  1.240268e+001  0.000000e+000
    endloop
  endfacet
  facet normal -4.794255e-001 -8.775826e-001  0.000000e+000
    outer loop
      vertex  1.754502e+001  1.240268e+001  0.000000e+000
      vertex  1.754502e+001  1.240268e+001  1.000000e+001
      vertex  1.564670e+001  1.343973e+001  1.000000e+001
    endloop
  endfacet
  facet normal -4.794255e-001 -8.775826e-001  -0.000000e+000
    outer loop
      vertex  1.754502e+001  1.240268e+001  0.000000e+000
      vertex  1.564670e+001  1.343973e+001  1.000000e+001
      vertex  1.564670e+001  1.343973e+001  0.000000e+000
    endloop
  endfacet
  facet normal  1.279666e-001 -9.917785e-001  0.000000e+000
    outer loop
      vertex  1.564670e+001  1.343973e+001  0.000000e+000
      vertex  1.564670e+001  1.343973e+001  1.000000e+001
      vertex  1.350137e+001  1.316293e+001  1.000000e+001
    endloop
  endfacet
  facet normal  1.279666e-001 -9.917785e-001  0.000000e+000
    outer loop
      vertex  1.564670e+001  1.343973e+001  0.000000e+000
      vertex  1.350137e+001  1.316293e+001  1.000000e+001
      vertex  1.350137e+001  1.316293e+001  0.000000e+000
    endloop
  endfacet
  facet normal  6.864801e-001 -7.271485e-001  0.000000e+000
    outer loop
      vertex  1.350137e+001  1.316293e+001  0.000000e+000
      vertex  1.350137e+001  1.316293e+001  1.000000e+001
      vertex  1.192846e+001  1.167799e+001  1.000000e+001
    endloop
  endfacet
  facet normal  6.864801e-001 -7.271485e-001  0.000000e+000
    outer loop
      vertex  1.350137e+001  1.316293e+001  0.000000e+000
      vertex  1.192846e+001  1.167799e+001  1.000000e+001
      vertex  1.192846e+001  1.167799e+001  0.000000e+000
    endloop
  endfacet
  facet normal  9.036934e-001  4.281803e-001  -0.000000e+000
    outer loop
      vertex  1.245498e+001 -1.240268e+001  1.000000e+001
      vertex  1.152878e+001 -1.044788e+001  0.000000e+000
      vertex  1.152878e+001 -1.044788e+001  1.000000e+001
    endloop
  endfacet
  facet normal  9.827812e-001 -1.847729e-001  0.000000e+000
    outer loop
      vertex  1.152878e+001 -1.044788e+001  1.000000e+001
      vertex  1.152878e+001 -1.044788e+001  0.000000e+000
      vertex  1.192846e+001 -8.322011e+000  0.000000e+000
    endloop
  endfacet
  facet normal  9.827812e-001 -1.847729e-001  0.000000e+000
    outer loop
      vertex  1.152878e+001 -1.044788e+001  1.000000e+001
      vertex  1.192846e+001 -8.322011e+000  0.000000e+000
      vertex  1.192846e+001 -8.322011e+000  1.000000e+001
    endloop
  endfacet
  facet normal  9.036934e-001  4.281803e-001  0.000000e+000
    outer loop
      vertex  1.152878e+001 -1.044788e+001  0.000000e+000
      vertex  1.245498e+001 -1.240268e+001  1.000000e+001
      vertex  1.245498e+001 -1.240268e+001  0.000000e+000
    endloop
  endfacet
  facet normal  4.794257e-001  8.775824e-001  -0.000000e+000
    outer loop
      vertex  1.245498e+001 -1.240268e+001  0.000000e+000
      vertex  1.245498e+001 -1.240268e+001  1.000000e+001
      vertex  1.435330e+001 -1.343973e+001  1.000000e+001
    endloop
  endfacet
  facet normal  4.794257e-001  8.775824e-001  0.000000e+000
    outer loop
      vertex  1.245498e+001 -1.240268e+001  0.000000e+000
      vertex  1.435330e+001 -1.343973e+001  1.000000e+001
      vertex  1.435330e+001 -1.343973e+001  0.000000e+000
    endloop
  endfacet
  facet normal -1.279665e-001  9.917784e-001  0.000000e+000
    outer loop
      vertex  1.435330e+001 -1.343973e+001  0.000000e+000
      vertex  1.435330e+001 -1.343973e+001  1.000000e+001
      vertex  1.649863e+001 -1.316293e+001  1.000000e+001
    endloop
  endfacet
  facet normal -1.279665e-001  9.917784e-001  0.000000e+000
    outer loop
      vertex  1.435330e+001 -1.343973e+001  0.000000e+000
      vertex  1.649863e+001 -1.316293e+001  1.000000e+001
      vertex  1.649863e+001 -1.316293e+001  0.000000e+000
    endloop
  endfacet
  facet normal -6.864803e-001  7.271484e-001  0.000000e+000
    outer loop
      vertex  1.649863e+001 -1.316293e+001  0.000000e+000
      vertex  1.649863e+001 -1.316293e+001  1.000000e+001
      vertex  1.807154e+001 -1.167799e+001  1.000000e+001
    endloop
  endfacet
  facet normal -6.864803e-001  7.271484e-001  0.000000e+000
    outer loop
      vertex  1.649863e+001 -1.316293e+001  0.000000e+000
      vertex  1.807154e+001 -1.167799e+001  1.000000e+001
      vertex  1.807154e+001 -1.167799e+001  0.000000e+000
    endloop
  endfacet
  facet normal -9.036937e-001 -4.281795e-001  0.000000e+000
    outer loop
      vertex  1.754502e+001 -7.597320e+000  1.000000e+001
      vertex  1.847122e+001 -9.552116e+000  0.000000e+000
      vertex  1.847122e+001 -9.552116e+000  1.000000e+001
    endloop
  endfacet
  facet normal -9.827813e-001  1.847725e-001  0.000000e+000
    outer loop
      vertex  1.847122e+001 -9.552116e+000  1.000000e+001
      vertex  1.847122e+001 -9.552116e+000  0.000000e+000
      vertex  1.807154e+001 -1.167799e+001  0.000000e+000
    endloop
  endfacet
  facet normal -9.827813e-001  1.847725e-001  0.000000e+000
    outer loop
      vertex  1.847122e+001 -9.552116e+000  1.000000e+001
      vertex  1.807154e+001 -1.167799e+001  0.000000e+000
      vertex  1.807154e+001 -1.167799e+001  1.000000e+001
    endloop
  endfacet
  facet normal -9.036937e-001 -4.281795e-001  -0.000000e+000
    outer loop
      vertex  1.847122e+001 -9.552116e+000  0.000000e+000
      vertex  1.754502e+001 -7.597320e+000  1.000000e+001
      vertex  1.754502e+001 -7.597320e+000  0.000000e+000
    endloop
  endfacet
  facet normal -4.794254e-001 -8.775827e-001  0.000000e+000
    outer loop
      vertex  1.754502e+001 -7.597320e+000  0.000000e+000
      vertex  1.754502e+001 -7.597320e+000  1.000000e+001
      vertex  1.564670e+001 -6.560266e+000  1.000000e+001
    endloop
  endfacet
  facet normal -4.794254e-001 -8.775827e-001  -0.000000e+000
    outer loop
      vertex  1.754502e+001 -7.597320e+000  0.000000e+000
      vertex  1.564670e+001 -6.560266e+000  1.000000e+001
      vertex  1.564670e+001 -6.560266e+000  0.000000e+000
    endloop
  endfacet
  facet normal  1.279668e-001 -9.917785e-001  0.000000e+000
    outer loop
      vertex  1.564670e+001 -6.560266e+000  0.000000e+000
      vertex  1.564670e+001 -6.560266e+000  1.000000e+001
      vertex  1.350137e+001 -6.837073e+000  1.000000e+001
    endloop
  endfacet
  facet normal  1.279668e-001 -9.917785e-001  0.000000e+000
    outer loop
      vertex  1.564670e+001 -6.560266e+000  0.000000e+000
      vertex  1.350137e+001 -6.837073e+000  1.000000e+001
      vertex  1.350137e+001 -6.837073e+000  0.000000e+000
    endloop
  endfacet
  facet normal  6.864800e-001 -7.271487e-001  0.000000e+000
    outer loop
      vertex  1.350137e+001 -6.837073e+000  0.000000e+000
      vertex  1.350137e+001 -6.837073e+000  1.000000e+001
      vertex  1.192846e+001 -8.322011e+000  1.000000e+001
    endloop
  endfacet
  facet normal  6.864800e-001 -7.271487e-001  0.000000e+000
    outer loop
      vertex  1.350137e+001 -6.837073e+000  0.000000e+000
      vertex  1.192846e+001 -8.322011e+000  1.000000e+001
      vertex  1.192846e+001 -8.322011e+000  0.000000e+000
    endloop
  endfacet
  facet normal  9.036938e-001  4.281794e-001  -0.000000e+000
    outer loop
      vertex -2.929502e+001 -2.402680e+000  1.000000e+001
      vertex -3.022122e+001 -4.478834e-001  0.000000e+000
      vertex -3.022122e+001 -4.478834e-001  1.000000e+001
    endloop
  endfacet
  facet normal  9.827813e-001 -1.847725e-001  0.000000e+000
    outer loop
      vertex -3.022122e+001 -4.478834e-001  1.000000e+001
      vertex -3.022122e+001 -4.478834e-001  0.000000e+000
      vertex -2.982154e+001  1.677989e+000  0.000000e+000
    endloop
  endfacet
  facet normal  9.827813e-001 -1.847725e-001  0.000000e+000
    outer loop
      vertex -3.022122e+001 -4.478834e-001  1.000000e+001
      vertex -2.982154e+001  1.677989e+000  0.000000e+000
      vertex -2.982154e+001  1.677989e+000  1.000000e+001
    endloop
  endfacet
  facet normal  9.036938e-001  4.281794e-001  0.000000e+000
    outer loop
      vertex -3.022122e+001 -4.478834e-001  0.000000e+000
      vertex -2.929502e+001 -2.402680e+000  1.000000e+001
      vertex -2.929502e+001 -2.402680e+000  0.000000e+000
    endloop
  endfacet
  facet normal  4.794255e-001  8.775825e-001  -0.000000e+000
    outer loop
      vertex -2.929502e+001 -2.402680e+000  0.000000e+000
      vertex -2.929502e+001 -2.402680e+000  1.000000e+001
      vertex -2.739671e+001 -3.439734e+000  1.000000e+001
    endloop
  endfacet
  facet normal  4.794255e-001  8.775825e-001  0.000000e+000
    outer loop
      vertex -2.929502e+001 -2.402680e+000  0.000000e+000
      vertex -2.739671e+001 -3.439734e+000  1.000000e+001
      vertex -2.739671e+001 -3.439734e+000  0.000000e+000
    endloop
  endfacet
  facet normal -1.279667e-001  9.917785e-001  0.000000e+000
    outer loop
      vertex -2.739671e+001 -3.439734e+000  0.000000e+000
      vertex -2.739671e+001 -3.439734e+000  1.000000e+001
      vertex -2.525137e+001 -3.162927e+000  1.000000e+001
    endloop
  endfacet
  facet normal -1.279667e-001  9.917785e-001  0.000000e+000
    outer loop
      vertex -2.739671e+001 -3.439734e+000  0.000000e+000
      vertex -2.525137e+001 -3.162927e+000  1.000000e+001
      vertex -2.525137e+001 -3.162927e+000  0.000000e+000
    endloop
  endfacet
  facet normal -6.864802e-001  7.271486e-001  0.000000e+000
    outer loop
      vertex -2.525137e+001 -3.162927e+000  0.000000e+000
      vertex -2.525137e+001 -3.162927e+000  1.000000e+001
      vertex -2.367846e+001 -1.677989e+000  1.000000e+001
    endloop
  endfacet
  facet normal -6.864802e-001  7.271486e-001  0.000000e+000
    outer loop
      vertex -2.525137e+001 -3.162927e+000  0.000000e+000
      vertex -2.367846e+001 -1.677989e+000  1.000000e+001
      vertex -2.367846e+001 -1.677989e+000  0.000000e+000
    endloop
  endfacet
  facet normal -9.036938e-001 -4.281794e-001  0.000000e+000
    outer loop
      vertex -2.420498e+001  2.402680e+000  1.000000e+001
      vertex -2.327878e+001  4.478834e-001  0.000000e+000
      vertex -2.327878e+001  4.478834e-001  1.000000e+001
    endloop
  endfacet
  facet normal -9.827813e-001  1.847725e-001  0.000000e+000
    outer loop
      vertex -2.327878e+001  4.478834e-001  1.000000e+001
      vertex -2.327878e+001  4.478834e-001  0.000000e+000
      vertex -2.367846e+001 -1.677989e+000  0.000000e+000
    endloop
  endfacet
  facet normal -9.827813e-001  1.847725e-001  0.000000e+000
    outer loop
      vertex -2.327878e+001  4.478834e-001  1.000000e+001
      vertex -2.367846e+001 -1.677989e+000  0.000000e+000
      vertex -2.367846e+001 -1.677989e+000  1.000000e+001
    endloop
  endfacet
  facet normal -9.036938e-001 -4.281794e-001  -0.000000e+000
    outer loop
      vertex -2.327878e+001  4.478834e-001  0.000000e+000
      vertex -2.420498e+001  2.402680e+000  1.000000e+001
      vertex -2.420498e+001  2.402680e+000  0.000000e+000
    endloop
  endfacet
  facet normal -4.794255e-001 -8.775825e-001  0.000000e+000
    outer loop
      vertex -2.420498e+001  2.402680e+000  0.000000e+000
      vertex -2.420498e+001  2.402680e+000  1.000000e+001
      vertex -2.610329e+001  3.439734e+000  1.000000e+001
    endloop
  endfacet
  facet normal -4.794255e-001 -8.775825e-001  -0.000000e+000
    outer loop
      vertex -2.420498e+001  2.402680e+000  0.000000e+000
      vertex -2.610329e+001  3.439734e+000  1.000000e+001
      vertex -2.610329e+001  3.439734e+000  0.000000e+000
    endloop
  endfacet
  facet normal  1.279667e-001 -9.917785e-001  0.000000e+000
    outer loop
      vertex -2.610329e+001  3.439734e+000  0.000000e+000
      vertex -2.610329e+001  3.439734e+000  1.000000e+001
      vertex -2.824863e+001  3.162927e+000  1.000000e+001
    endloop
  endfacet
  facet normal  1.279667e-001 -9.917785e-001  0.000000e+000
    outer loop
      vertex -2.610329e+001  3.439734e+000  0.000000e+000
      vertex -2.824863e+001  3.162927e+000  1.000000e+001
      vertex -2.824863e+001  3.162927e+000  0.000000e+000
    endloop
  endfacet
  facet normal  6.864802e-001 -7.271486e-001  0.000000e+000
    outer loop
      vertex -2.824863e+001  3.162927e+000  0.000000e+000
      vertex -2.824863e+001  3.162927e+000  1.000000e+001
      vertex -2.982154e+001  1.677989e+000  1.000000e+001
    endloop
  endfacet
  facet normal  6.864802e-001 -7.271486e-001  0.000000e+000
    outer loop
      vertex -2.824863e+001  3.162927e+000  0.000000e+000
      vertex -2.982154e+001  1.677989e+000  1.000000e+001
      vertex -2.982154e+001  1.677989e+000  0.000000e+000
    endloop
  endfacet
  facet normal  9.036934e-001  4.281801e-001  -0.000000e+000
    outer loop
      vertex -1.129502e+001 -2.402680e+000  1.000000e+001
      vertex -1.222122e+001 -4.478834e-001  0.000000e+000
      vertex -1.222122e+001 -4.478834e-001  1.000000e+001
    endloop
  endfacet
  facet normal  9.827812e-001 -1.847729e-001  0.000000e+000
    outer loop
      vertex -1.222122e+001 -4.478834e-001  1.000000e+001
      vertex -1.222122e+001 -4.478834e-001  0.000000e+000
      vertex -1.182154e+001  1.677989e+000  0.000000e+000
    endloop
  endfacet
  facet normal  9.827812e-001 -1.847729e-001  0.000000e+000
    outer loop
      vertex -1.222122e+001 -4.478834e-001  1.000000e+001
      vertex -1.182154e+001  1.677989e+000  0.000000e+000
      vertex -1.182154e+001  1.677989e+000  1.000000e+001
    endloop
  endfacet
  facet normal  9.036934e-001  4.281801e-001  0.000000e+000
    outer loop
      vertex -1.222122e+001 -4.478834e-001  0.000000e+000
      vertex -1.129502e+001 -2.402680e+000  1.000000e+001
      vertex -1.129502e+001 -2.402680e+000  0.000000e+000
    endloop
  endfacet
  facet normal  4.794255e-001  8.775825e-001  -0.000000e+000
    outer loop
      vertex -1.129502e+001 -2.402680e+000  0.000000e+000
      vertex -1.129502e+001 -2.402680e+000  1.000000e+001
      vertex -9.396705e+000 -3.439734e+000  1.000000e+001
    endloop
  endfacet
  facet normal  4.794255e-001  8.775825e-001  0.000000e+000
    outer loop
      vertex -1.129502e+001 -2.402680e+000  0.000000e+000
      vertex -9.396705e+000 -3.439734e+000  1.000000e+001
      vertex -9.396705e+000 -3.439734e+000  0.000000e+000
    endloop
  endfacet
  facet normal -1.279668e-001  9.917785e-001  0.000000e+000
    outer loop
      vertex -9.396705e+000 -3.439734e+000  0.000000e+000
      vertex -9.396705e+000 -3.439734e+000  1.000000e+001
      vertex -7.251370e+000 -3.162927e+000  1.000000e+001
    endloop
  endfacet
  facet normal -1.279668e-001  9.917785e-001  0.000000e+000
    outer loop
      vertex -9.396705e+000 -3.439734e+000  0.000000e+000
      vertex -7.251370e+000 -3.162927e+000  1.000000e+001
      vertex -7.251370e+000 -3.162927e+000  0.000000e+000
    endloop
  endfacet
  facet normal -6.864800e-001  7.271487e-001  0.000000e+000
    outer loop
      vertex -7.251370e+000 -3.162927e+000  0.000000e+000
      vertex -7.251370e+000 -3.162927e+000  1.000000e+001
      vertex -5.678461e+000 -1.677989e+000  1.000000e+001
    endloop
  endfacet
  facet normal -6.864800e-001  7.271487e-001  0.000000e+000
    outer loop
      vertex -7.251370e+000 -3.162927e+000  0.000000e+000
      vertex -5.678461e+000 -1.677989e+000  1.000000e+001
      vertex -5.678461e+000 -1.677989e+000  0.000000e+000
    endloop
  endfacet
  facet normal -9.036935e-001 -4.281799e-001  0.000000e+000
    outer loop
      vertex -6.204979e+000  2.402680e+000  1.000000e+001
      vertex -5.278775e+000  4.478834e-001  0.000000e+000
      vertex -5.278775e+000  4.478834e-001  1.000000e+001
    endloop
  endfacet
  facet normal -9.827812e-001  1.847729e-001  0.000000e+000
    outer loop
      vertex -5.278775e+000  4.478834e-001  1.000000e+001
      vertex -5.278775e+000  4.478834e-001  0.000000e+000
      vertex -5.678461e+000 -1.677989e+000  0.000000e+000
    endloop
  endfacet
  facet normal -9.827812e-001  1.847729e-001  0.000000e+000
    outer loop
      vertex -5.278775e+000  4.478834e-001  1.000000e+001
      vertex -5.678461e+000 -1.677989e+000  0.000000e+000
      vertex -5.678461e+000 -1.677989e+000  1.000000e+001
    endloop
  endfacet
  facet normal -9.036935e-001 -4.281799e-001  -0.000000e+000
    outer loop
      vertex -5.278775e+000  4.478834e-001  0.000000e+000
      vertex -6.204979e+000  2.402680e+000  1.000000e+001
      vertex -6.204979e+000  2.402680e+000  0.000000e+000
    endloop
  endfacet
  facet normal -4.794255e-001 -8.775826e-001  0.000000e+000
    outer loop
      vertex -6.204979e+000  2.402680e+000  0.000000e+000
      vertex -6.204979e+000  2.402680e+000  1.000000e+001
      vertex -8.103295e+000  3.439734e+000  1.000000e+001
    endloop
  endfacet
  facet normal -4.794255e-001 -8.775826e-001  -0.000000e+000
    outer loop
      vertex -6.204979e+000  2.402680e+000  0.000000e+000
      vertex -8.103295e+000  3.439734e+000  1.000000e+001
      vertex -8.103295e+000  3.439734e+000  0.000000e+000
    endloop
  endfacet
  facet normal  1.279668e-001 -9.917785e-001  0.000000e+000
    outer loop
      vertex -8.103295e+000  3.439734e+000  0.000000e+000
      vertex -8.103295e+000  3.439734e+000  1.000000e+001
      vertex -1.024863e+001  3.162927e+000  1.000000e+001
    endloop
  endfacet
  facet normal  1.279668e-001 -9.917785e-001  0.000000e+000
    outer loop
      vertex -8.103295e+000  3.439734e+000  0.000000e+000
      vertex -1.024863e+001  3.162927e+000  1.000000e+001
      vertex -1.024863e+001  3.162927e+000  0.000000e+000
    endloop
  endfacet
  facet normal  6.864799e-001 -7.271488e-001  0.000000e+000
    outer loop
      vertex -1.024863e+001  3.162927e+000  0.000000e+000
      vertex -1.024863e+001  3.162927e+000  1.000000e+001
      vertex -1.182154e+001  1.677989e+000  1.000000e+001
    endloop
  endfacet
  facet normal  6.864799e-001 -7.271488e-001  0.000000e+000
    outer loop
      vertex -1.024863e+001  3.162927e+000  0.000000e+000
      vertex -1.182154e+001  1.677989e+000  1.000000e+001
      vertex -1.182154e+001  1.677989e+000  0.000000e+000
    endloop
  endfacet
  facet normal  1.000000e+000  -0.000000e+000  0.000000e+000
    outer loop
      vertex  3.500000e+001  1.292893e+001  1.000000e+001
      vertex  3.500000e+001 -1.292893e+001  1.000000e+001
      vertex  3.500000e+001  1.292893e+001  0.000000e+000
    endloop
  endfacet
  facet normal  1.000000e+000  0.000000e+000  0.000000e+000
    outer loop
      vertex  3.500000e+001  1.292893e+001  0.000000e+000
      vertex  3.500000e+001 -1.292893e+001  1.000000e+001
      vertex  3.500000e+001 -1.292893e+001  0.000000e+000
    endloop
  endfacet
  facet normal  7.071068e-001 -7.071068e-001  0.000000e+000
    outer loop
      vertex  3.500000e+001 -1.292893e+001  0.000000e+000
      vertex  3.500000e+001 -1.292893e+001  1.000000e+001
      vertex  2.792893e+001 -2.000000e+001  0.000000e+000
    endloop
  endfacet
  facet normal  7.071068e-001 -7.071068e-001  0.000000e+000
    outer loop
      vertex  2.792893e+001 -2.000000e+001  0.000000e+000
      vertex  3.500000e+001 -1.292893e+001  1.000000e+001
      vertex  2.792893e+001 -2.000000e+001  1.000000e+001
    endloop
  endfacet
  facet normal  0.000000e+000 -1.000000e+000  0.000000e+000
    outer loop
      vertex  2.792893e+001 -2.000000e+001  1.000000e+001
      vertex -2.792893e+001 -2.000000e+001  1.000000e+001
      vertex  2.792893e+001 -2.000000e+001  0.000000e+000
    endloop
  endfacet
  facet normal  0.000000e+000 -1.000000e+000  0.000000e+000
    outer loop
      vertex  2.792893e+001 -2.000000e+001  0.000000e+000
      vertex -2.792893e+001 -2.000000e+001  1.000000e+001
      vertex -2.792893e+001 -2.000000e+001  0.000000e+000
    endloop
  endfacet
  facet normal -7.071068e-001 -7.071068e-001  -0.000000e+000
    outer loop
      vertex -2.792893e+001 -2.000000e+001  0.000000e+000
      vertex -2.792893e+001 -2.000000e+001  1.000000e+001
      vertex -3.500000e+001 -1.292893e+001  0.000000e+000
    endloop
  endfacet
  facet normal -7.071068e-001 -7.071068e-001  0.000000e+000
    outer loop
      vertex -3.500000e+001 -1.292893e+001  0.000000e+000
      vertex -2.792893e+001 -2.000000e+001  1.000000e+001
      vertex -3.500000e+001 -1.292893e+001  1.000000e+001
    endloop
  endfacet
  facet normal -1.000000e+000  -0.000000e+000  0.000000e+000
    outer loop
      vertex -3.500000e+001 -1.292893e+001  1.000000e+001
      vertex -3.500000e+001  1.292893e+001  1.000000e+001
      vertex -3.500000e+001 -1.292893e+001  0.000000e+000
    endloop
  endfacet
  facet normal -1.000000e+000  0.000000e+000  0.000000e+000
    outer loop
      vertex -3.500000e+001 -1.292893e+001  0.000000e+000
      vertex -3.500000e+001  1.292893e+001  1.000000e+001
      vertex -3.500000e+001  1.292893e+001  0.000000e+000
    endloop
  endfacet
  facet normal -7.071068e-001  7.071068e-001  0.000000e+000
    outer loop
      vertex -3.500000e+001  1.292893e+001  0.000000e+000
      vertex -3.500000e+001  1.292893e+001  1.000000e+001
      vertex -2.792893e+001  2.000000e+001  0.000000e+000
    endloop
  endfacet
  facet normal -7.071068e-001  7.071068e-001  0.000000e+000
    outer loop
      vertex -2.792893e+001  2.000000e+001  0.000000e+000
      vertex -3.500000e+001  1.292893e+001  1.000000e+001
      vertex -2.792893e+001  2.000000e+001  1.000000e+001
    endloop
  endfacet
  facet normal  0.000000e+000  1.000000e+000  0.000000e+000
    outer loop
      vertex -2.792893e+001  2.000000e+001  1.000000e+001
      vertex  2.792893e+001  2.000000e+001  1.000000e+001
      vertex -2.792893e+001  2.000000e+001  0.000000e+000
    endloop
  endfacet
  facet normal  0.000000e+000  1.000000e+000  0.000000e+000
    outer loop
      vertex -2.792893e+001  2.000000e+001  0.000000e+000
      vertex  2.792893e+001  2.000000e+001  1.000000e+001
      vertex  2.792893e+001  2.000000e+001  0.000000e+000
    endloop
  endfacet
  facet normal  7.071068e-001  7.071068e-001  0.000000e+000
    outer loop
      vertex  2.792893e+001  2.000000e+001  0.000000e+000
      vertex  2.792893e+001  2.000000e+001  1.000000e+001
      vertex  3.500000e+001  1.292893e+001  0.000000e+000
    endloop
  endfacet
  facet normal  7.071068e-001  7.071068e-001  -0.000000e+000
    outer loop
      vertex  3.500000e+001  1.292893e+001  0.000000e+000
      vertex  2.792893e+001  2.000000e+001  1.000000e+001
      vertex  3.500000e+001  1.292893e+001  1.000000e+001
    endloop
  endfacet
endsolid CATIA STL
